# xmcd
#
# Track frame offsets:
#	150
#	15589
#	29696
#	43019
#	58251
#	73065
#	88124
#	103405
#	117820
#	131253
#
# Disc length: 1954 seconds
#
# Revision: 0
# Processed by: cddbd v1.5.2PL0 Copyright (c) Steve Scherf et al.
# Submitted via: EasyCDDAExtractor 16.0.6.1
#
DISCID=8d07a00a
DTITLE=Συλλογικός δίσκος - Λαϊκό τραγούδι 1954-1967, 1959-1
DYEAR=2008
DGENRE=Λαϊκή
TTITLE0=Μπιθικώτσης Γρηγόρης - Σε τούτο το στενό [Γρηγόρης Μπιθικώτσης-Δημήτρη
TTITLE0=ς Γκούτης]
TTITLE1=Λύδια Γιώτα - Αυτά μού κάνεις και σ' αγαπώ [Θεόδ. Δερβενιώτης-Κώστας Μ
TTITLE1=άνεσης]
TTITLE2=Καζαντζίδης Στέλιος - Το πικραμένο αηδόνι [Στέλιος Καζαντζίδης-Δημήτρη
TTITLE2=ς Γκούτης]
TTITLE3=Μπιθικώτσης Γρηγόρης-Καλδάρας Απόστολος - Το γιουσουρούμ [Απόστολος Κα
TTITLE3=λδάρας]
TTITLE4=Μενιδιάτης Μιχάλης - Πες μου Χάρε [Παναγιώτης Πετσάς-Δημήτρης Πετσάς]
TTITLE5=Γαβαλάς Πάνος - Μαύρη ζωή για τον μπεκρή [Πάνος Γαβαλάς-Δημήτρης Γκούτ
TTITLE5=ης]
TTITLE6=Μπιθικώτσης Γρηγόρης - Ένας μπαγλαμάς μουρμούρης [Θεόδωρος Δερβενιώτης
TTITLE6=Κώστας Βίρβος]
TTITLE7=Γκρέϋ Καίτη - Η μοντέρνα χήρα [Γιώργος Μητσάκης]
TTITLE8=Γαβαλάς Πάνος - Κλάψε μαζί μου ουρανέ [Ευάγγελος Μπαλλής-Νίκος Δαλέζιο
TTITLE8=ς]
TTITLE9=Λάμπο Έλσα-χορωδία - Η Γερακίνα [Βασίλης Τσιτσάνης]
EXTD=
EXTT0=
EXTT1=
EXTT2=
EXTT3=
EXTT4=
EXTT5=
EXTT6=
EXTT7=
EXTT8=
EXTT9=
PLAYORDER=
